<svg version="1.1" id="Camada_1" xmlns="http://www.w3.org/2000/svg" xmlns:xlink="http://www.w3.org/1999/xlink" x="0" y="0" viewBox="0 0 1000 325.7" style="enable-background:new 0 0 1000 325.7" xml:space="preserve"><style>.st0{fill:#0fabcc}.st4{fill:#f36f23}</style><g id="surface1"><path class="st0" d="M234.7 181.3c2.1-15.5 11.8-25.6 25.6-25.6 14.6 0 23.5 9.9 23.1 25.6h-48.7zm26.5-43.9c-33.5 0-52.4 25.8-52.4 60.5 0 40.4 19.6 58.9 55.4 58.9 14.1 0 28.2-2.5 39.7-7.4l-2.3-19.6c-9.5 4.6-21.7 7.4-33.5 7.4-22.9 0-34.6-12-33.9-38.5h73.2c.5-4.4.7-8.3.7-11.6 0-27.3-14.1-49.7-46.9-49.7M392.4 137.4c-19.4 0-33.2 10.1-39.9 24.9l-.2-.2c1.1-6.5 1.6-16.4 1.6-22.4h-23.6v114.8H355V199c0-22.8 12.7-41.1 30-41.1 13.2 0 17.1 8.3 17.1 22.6v73.9h24.5V174c0-20.2-8.1-36.6-34.2-36.6M473.4 181.3c2.1-15.5 11.8-25.6 25.6-25.6 14.6 0 23.5 9.9 23.1 25.6h-48.7zm26.6-43.9c-33.5 0-52.4 25.8-52.4 60.5 0 40.4 19.6 58.9 55.4 58.9 14.1 0 28.2-2.5 39.7-7.4l-2.3-19.6c-9.5 4.6-21.7 7.4-33.5 7.4-22.9 0-34.6-12-34-38.5h73.2c.5-4.4.7-8.3.7-11.6.1-27.3-14-49.7-46.8-49.7M590.7 165.1h-.4c1.6-8.8 2.3-19 2.3-25.4H569v114.8h24.7v-46.6c0-34.4 11.1-50.4 34-46.2l1.1-24.2c-21.4-2.2-33 12.1-38.1 27.6M715.8 233.6c-4.9 1.3-10.9 2.2-16.9 2.2-21.6 0-36.5-13.6-36.5-38.2 0-26.2 17.3-39.8 38.9-39.8 11.1 0 21.6 2.2 31.8 6.2l4.3-20.9c-12-3.6-24-5.3-36.3-5.3-40.2 0-64.2 27.1-64.2 61.8 0 37.8 25.1 57.4 59.8 57.4 15.8 0 29.8-2.7 43.1-7.8v-54.5h-24v38.9M763.3 254.5H788V139.7h-24.7v114.8"/><defs><path id="SVGID_1_" d="M902.9 136.7h97.1v122h-97.1z"/></defs><clipPath id="SVGID_2_"><use xlink:href="#SVGID_1_" style="overflow:visible"/></clipPath><path class="st0" d="M974.5 199.7c0 16.4-11.3 37.8-28.2 37.8-4.1 0-7.4-.6-9.8-1.9-6.3-3.4-12.7-19.8-.5-29.6 3.1-2.5 7.8-4.5 12.9-5.8 5.7-1.4 13.6-2.8 25.6-2.8v2.3zm25.4 55c-.5-9.7-.7-21.5-.7-31.4v-47c0-23.5-9.7-38.8-44.8-38.8-14.8 0-29.1 3.2-40.4 7.6l2.3 21c9.7-6 23.6-9.2 34.2-9.2 18 0 24 9.7 24 23.9-23.8 0-47.2 5.9-59.3 18.2-3.3 3.4-5.7 6.9-7.6 11.4-5.7 13-1.9 24.9 3.3 32.6 7.1 10.6 14.9 14.3 28.1 14.1 18.3-.4 32.6-10.2 38.1-23.8l.2.3c-.9 6.2-1.2 13.8-1.2 21.2h23.8" style="clip-path:url(#SVGID_2_)"/><path class="st0" d="M836.8 169.1c0-8.7 11.8-12.6 25.6-12.6 7.5 0 15.7 1.3 22.6 4l1.1-18.9c-5.7-2.3-14.9-3.4-21.7-3.3-31.6 0-53.2 13.6-53.3 33.2-.2 39.2 56.1 30.5 56 53.3 0 9.3-8.4 10.9-22 10.9-8.9 0-22.9-3.5-30.9-7.1l-.8 21.9c7.5 3 21.6 5.7 30.2 5.7 31.1 0 49.6-12.6 49.7-33.8.1-37.7-56.6-31.4-56.5-53.3M235.3 180.9c2.1-15.5 11.8-25.6 25.6-25.6 14.5 0 23.5 9.9 23 25.6h-48.6zm26.5-43.9c-33.5 0-52.4 25.8-52.4 60.5 0 40.4 19.6 58.8 55.4 58.8 14.1 0 28.2-2.5 39.7-7.4l-2.3-19.6c-9.5 4.6-21.7 7.4-33.5 7.4-22.9 0-34.6-12-34-38.5h73.2c.4-4.4.7-8.3.7-11.5 0-27.3-14-49.7-46.8-49.7M392.9 137c-19.4 0-33.2 10.2-39.9 24.9l-.2-.2c1.1-6.4 1.6-16.4 1.6-22.4h-23.5V254h24.7v-55.4c0-22.9 12.7-41.1 30-41.1 13.1 0 17.1 8.3 17.1 22.6V254H427v-80.3c0-20.3-8.1-36.7-34.1-36.7M473.9 180.9c2.1-15.5 11.8-25.6 25.6-25.6 14.5 0 23.5 9.9 23.1 25.6h-48.7zm26.5-43.9c-33.5 0-52.4 25.8-52.4 60.5 0 40.4 19.6 58.8 55.4 58.8 14.1 0 28.1-2.5 39.7-7.4l-2.3-19.6c-9.5 4.6-21.7 7.4-33.5 7.4-22.8 0-34.6-12-33.9-38.5h73.2c.4-4.4.7-8.3.7-11.5-.1-27.3-14.1-49.7-46.9-49.7M591.1 164.7h-.5c1.6-8.8 2.3-19 2.3-25.4h-23.5V254h24.7v-46.7c0-34.4 11.1-50.3 33.9-46.2l1.2-24.2c-21.5-1.9-33 12.4-38.1 27.8M716.1 233.2c-4.9 1.4-10.9 2.2-16.9 2.2-21.5 0-36.5-13.5-36.5-38.2 0-26.2 17.4-39.8 38.9-39.8 11.1 0 21.5 2.2 31.7 6.2l4.3-20.9c-12-3.6-24-5.3-36.2-5.3-40.2 0-64.2 27.1-64.2 61.8 0 37.8 25.1 57.3 59.8 57.3 15.8 0 29.8-2.7 43.1-7.8v-54.4h-24v38.9M763.6 254.1h24.7V139.3h-24.7v114.8"/><defs><path id="SVGID_3_" d="M902.9 136.7h97.1v122h-97.1z"/></defs><clipPath id="SVGID_4_"><use xlink:href="#SVGID_3_" style="overflow:visible"/></clipPath><path class="st0" d="M974.6 199.3c0 16.4-11.3 37.8-28.1 37.8-4.1 0-7.4-.6-9.8-2-6.3-3.4-12.7-19.8-.5-29.6 3.1-2.5 7.8-4.4 12.9-5.8 5.6-1.4 13.6-2.8 25.6-2.8v2.4zm25.4 55c-.5-9.7-.7-21.5-.7-31.4v-47c0-23.5-9.7-38.8-44.8-38.8-14.8 0-29.1 3.2-40.4 7.6l2.3 21c9.7-6 23.5-9.2 34.2-9.2 17.9 0 23.9 9.6 23.9 23.9-23.8 0-47.1 5.8-59.3 18.1-3.4 3.4-5.7 6.9-7.6 11.4-5.7 13-1.9 24.9 3.2 32.6 7.1 10.6 15 14.3 28.1 14 18.2-.4 32.5-10.2 38.1-23.8l.3.2c-.9 6.2-1.2 13.8-1.2 21.2h23.9" style="clip-path:url(#SVGID_4_)"/><path class="st0" d="M837 168.7c0-8.7 11.8-12.6 25.6-12.6 7.5 0 15.6 1.3 22.6 4l1.1-18.9c-5.7-2.3-14.9-3.4-21.7-3.3-31.5 0-53.2 13.6-53.2 33.2-.2 39.2 56 30.4 56 53.2 0 9.3-8.4 10.9-22 10.9-8.9 0-22.9-3.5-30.9-7.1l-.8 21.9c7.5 3 21.6 5.7 30.2 5.7 31.1 0 49.6-12.5 49.6-33.7 0-37.7-56.6-31.4-56.5-53.3M236.9 99c-10.3 0-17.7-5.8-17.7-17 0-10.3 7.1-18.3 19-18.3 3.7 0 7.2.5 10.7 1.6l-1.2 6.2c-3-1.2-6.1-1.8-9.4-1.8-6.3 0-11.5 4-11.5 11.8 0 7.3 4.4 11.3 10.8 11.3 1.8 0 3.5-.3 5-.7V80.6h7.1v16.1c-4 1.5-8.1 2.3-12.8 2.3M270.8 69.5c-1.2 0-2.1 0-3 .1v9.9c1 .1 2.1.1 3.3.1 3.8 0 6.2-2.2 6.2-5.4-.1-3-2.5-4.7-6.5-4.7m7.1 28.9-9.8-14.1h-.3v14.1h-7.1V64.2c2.5-.1 7-.2 11.2-.2 8.1 0 12.9 3.2 12.9 9.5 0 5.6-3.9 8.9-9.3 9.8.8.9 1.7 2.2 2.8 3.7l8.5 11.4h-8.9M309.2 99c-9.9 0-14.9-4.7-14.9-12.5V64.2h7.1V85c0 5.6 2.9 8 8.2 8 5.9 0 8-3.3 8-8.6V64.2h7.1v21.1c.1 7.5-4.5 13.7-15.5 13.7M346.8 69.8c-1.3 0-2.5 0-3.5.1v11.6c.8.2 2.1.3 3 .3 4.4 0 7.1-2.1 7.1-6.1 0-3.5-2.2-5.9-6.6-5.9m-.5 17.5c-.9 0-2.2-.1-3-.1v11.2h-7.1V64.2c2.9-.1 7.2-.2 11.2-.2 8.7 0 13.6 4.2 13.6 11.1 0 7.5-6 12.2-14.7 12.2M383.2 69.9c-5.2 0-9.7 3.9-9.7 11.3 0 6.5 2.8 11.6 9.4 11.6 5.5 0 10-3.7 10-11.3 0-7.6-3.9-11.6-9.7-11.6m-.7 29.1c-11.1 0-16.6-7.1-16.6-17.3 0-11.2 8.3-18 17.7-18 9.9 0 16.8 5.8 16.8 17.3.1 11.3-8.1 18-17.9 18"/><g><defs><path id="SVGID_5_" d="M24.4 92.7h214.7v233H24.4z"/></defs><clipPath id="SVGID_6_"><use xlink:href="#SVGID_5_" style="overflow:visible"/></clipPath><path class="st4" d="M108.2 94.3c-76.5 31.6-141.6 114.3 3.5 231.4h123.4S-13.6 178.8 108.2 94.3" style="clip-path:url(#SVGID_6_)"/></g><g><defs><path id="SVGID_7_" d="M0 200.1h107.4v125.6H0z"/></defs><clipPath id="SVGID_8_"><use xlink:href="#SVGID_7_" style="overflow:visible"/></clipPath><path class="st4" d="M7.3 204.3s-22.7 58.3 12.3 121.4h84.8C62 306.6 5.5 253.3 7.3 204.3" style="clip-path:url(#SVGID_8_)"/></g><path class="st0" d="M153.7 0H18.3S173.5 51.1 106 154.9c0 0 114.8-80.4 47.7-154.9"/></g></svg>